<svg xmlns="http://www.w3.org/2000/svg" viewBox="0 0 304.1 122.07"><path fill="#008c62" d="M9.73 57.86l21.39 13.03 48.77-6.67-6.81-11.73-9.75-2.72h-8.86l-35.64 2.95-9.1 5.14z"/><path d="M28 15.44L20.71 47l25.64-3L50 27S38 14.57 37.56 14.7s-9.49.75-9.49.75" fill="#01352b"/><path fill="#008c62" d="M28.02 15.44l21.59 13.49 4.76-.76 3.72-17.49-26.74 2.7-4.1 1.31.77.75z"/><path d="M85.62 9.93L69.14 0 58.27 51.18l21.62 13 9.48-44.61c.86-4-.58-7.77-3.75-9.68" fill="#01352b"/><path d="M50.85 42.42l-29.42 4 6.59-31 29.43-4zM20.61 6.67L9.73 57.86l48.54-6.68L69.14 0z" fill="#005f49"/><path d="M61.59 106.63L68.91 75l-25.64 3.12-3.61 17s12 12.43 12.45 12.3 9.48-.75 9.48-.75" fill="#01352b"/><path fill="#008c62" d="M61.59 106.63L40.01 93.14l-4.76.76-3.72 17.49 26.74-2.7 4.09-1.31-.77-.75z"/><path d="M4 112.13l16.49 9.94 10.86-51.18-21.62-13-9.48 44.58c-.86 4 .57 7.76 3.73 9.66" fill="#01352b"/><path d="M38.77 79.65l29.42-4-6.6 31-29.42 4.05zM69 115.4l10.89-51.19-48.54 6.68-10.88 51.18zm233.1-72.73h-14.85c-7 0-10.12.08-11.55 6.66L292.3 60a8.75 8.75 0 0 1 4 8.49c-.22 1.64-.48 3.27-.84 4.89-2.28 10.29-10.88 15.41-26.31 15.41h-20.34l1.93-9.08h16.19c8.68 0 8.77-2 10.29-8.77L260 59.26a8.73 8.73 0 0 1-3.78-8.42c0-.3.1-.61.16-.92 2.19-10.2 9.95-16.41 26.73-16.41h21zm-86.78 0l-30.31 37.02h22.84l-2.03 9.11h-41.45l1.95-9.11 30.15-37.02h-21.51l1.95-9.11h40.36l-1.95 9.11zm-64.15 0h-14.85c-7 0-10.12.08-11.56 6.66L141.36 60a8.75 8.75 0 0 1 4 8.49c-.21 1.64-.48 3.27-.83 4.89-2.28 10.29-10.89 15.41-26.31 15.41H97.87l1.93-9.08H116c8.69 0 8.77-2 10.29-8.77l-17.22-11.68a8.7 8.7 0 0 1-3.77-8.42c0-.3.09-.61.15-.92 2.2-10.2 10-16.41 26.73-16.41h21zm10.61 46.13h-18.04l11.99-55.29h18.04L161.78 88.8zm94.51-46.22h-19.56l-2.87 13.16h15.35l-2.02 9.11h-15.27l-3.2 14.84h19.48l-1.94 9.11h-37.78l12.06-55.24h37.78l-2.03 9.02z" fill="#005f49"/></svg>