<svg width="305" height="123" viewBox="0 0 305 123" fill="none" xmlns="http://www.w3.org/2000/svg">
<g clip-path="url(#clip0)">
<path d="M9.72998 57.86L31.12 70.89L79.89 64.22L73.08 52.49L63.33 49.77H54.47L18.83 52.72L9.72998 57.86Z" fill="#FEFEFE"/>
<path d="M28 15.44L20.71 47L46.35 44L50 27C50 27 38 14.57 37.56 14.7C37.12 14.83 28.07 15.45 28.07 15.45" fill="#A7A6A7"/>
<path d="M28.02 15.4399L49.61 28.9299L54.37 28.1699L58.09 10.6799L31.35 13.3799L27.25 14.6899L28.02 15.4399Z" fill="#B6B6B6"/>
<path d="M85.62 9.93L69.14 0L58.27 51.18L79.89 64.18L89.37 19.57C90.23 15.57 88.79 11.8 85.62 9.89" fill="#A7A7A7"/>
<path d="M50.85 42.42L21.43 46.42L28.02 15.42L57.45 11.42L50.85 42.42ZM20.61 6.67L9.72998 57.86L58.27 51.18L69.14 0L20.61 6.67Z" fill="#E1E1E1"/>
<path d="M61.59 106.63L68.91 75L43.27 78.12L39.66 95.12C39.66 95.12 51.66 107.55 52.11 107.42C52.56 107.29 61.59 106.67 61.59 106.67" fill="#A8A7A7"/>
<path d="M61.59 106.63L40.01 93.1399L35.25 93.8999L31.53 111.39L58.27 108.69L62.36 107.38L61.59 106.63Z" fill="#B6B6B6"/>
<path d="M3.99997 112.13L20.49 122.07L31.35 70.8899L9.72997 57.8899L0.249975 102.47C-0.610025 106.47 0.819975 110.23 3.97997 112.13" fill="#B3B4B4"/>
<path d="M38.77 79.65L68.19 75.65L61.59 106.65L32.17 110.7L38.77 79.65ZM69 115.4L79.89 64.21L31.35 70.89L20.47 122.07L69 115.4Z" fill="#E1E2DE"/>
<path d="M287.38 42.16H302.23L304.24 33H283.24C266.46 33 258.7 39.21 256.51 49.41C256.45 49.72 256.35 50.03 256.35 50.33C256.13 51.9465 256.368 53.5922 257.036 55.0804C257.704 56.5686 258.776 57.8399 260.13 58.75L277.35 70.43C275.83 77.2 275.74 79.2 267.06 79.2H250.87L248.94 88.28H269.28C284.71 88.28 293.31 83.16 295.59 72.87C295.95 71.25 296.21 69.62 296.43 67.98C296.638 66.3311 296.373 64.6569 295.665 63.1534C294.956 61.6498 293.834 60.3791 292.43 59.49L275.83 48.82C277.26 42.24 280.38 42.16 287.38 42.16Z" fill="white"/>
<path d="M185.14 79.18L215.45 42.16L217.4 33.05H177.04L175.09 42.16H196.6L166.45 79.18L164.5 88.29H205.95L207.98 79.18H185.14Z" fill="white"/>
<path d="M136.45 42.16H151.3L153.31 33H132.31C115.58 33 107.78 39.21 105.58 49.41C105.52 49.72 105.43 50.03 105.43 50.33C105.206 51.9458 105.44 53.592 106.107 55.0809C106.774 56.5697 107.845 57.8411 109.2 58.75L126.42 70.43C124.9 77.2 124.82 79.2 116.13 79.2H99.93L98 88.28H118.35C133.77 88.28 142.38 83.16 144.66 72.87C145.01 71.25 145.28 69.62 145.49 67.98C145.698 66.3311 145.433 64.6569 144.725 63.1534C144.016 61.6498 142.894 60.3791 141.49 59.49L124.89 48.82C126.33 42.24 129.45 42.16 136.45 42.16Z" fill="white"/>
<path d="M143.87 88.29H161.91L173.9 33H155.86L143.87 88.29Z" fill="white"/>
<path d="M236.86 42.07H256.42L258.45 33.05H220.67L208.61 88.29H246.39L248.33 79.18H228.85L232.05 64.34H247.32L249.34 55.23H233.99L236.86 42.07Z" fill="white"/>
</g>
<defs>
<clipPath id="clip0">
<rect width="304.1" height="122.07" fill="white"/>
</clipPath>
</defs>
</svg>
