<svg xmlns="http://www.w3.org/2000/svg" width="588" height="507" viewBox="0 0 588 507">
  <g fill="none" fill-rule="evenodd">
    <path fill="#009949" d="M84,252 L0,252 L0,84 L84,84 L84,0 L252,0 L252,84 L336,84 L336,0 L504,0 L504,84 L588,84 L588,252 L504,252 L504,336 L420.5,336 L420.5,420 L336.5,420 L336.5,507 L252.5,507 L252.5,420 L168.5,420 L168.5,336 L84,336 L84,252 Z"/>
    <path fill="#3AAB47" d="M420,252 L420,336 L336,336 L336,420 L252,420 L252,336 L168,336 L168,252 L84,252 L84,84 L168,84 L168,0 L252,0 L252,84 L336,84 L336,0 L420,0 L420,84 L504,84 L504,252 L420,252 Z"/>
    <path fill="#76BB53" d="M336,252 L336,336 L252,336 L252,252 L168,252 L168,84 L252,84 L252,168 L336,168 L336,84 L420,84 L420,252 L336,252 Z"/>
  </g>
</svg>
